<svg width="128" height="128" viewBox="0 0 128 128" fill="none" xmlns="http://www.w3.org/2000/svg">
  <rect width="128" height="128" rx="28" fill="#0C1B2A"/>
  <path d="M85 22C72.9 22 62.2 28.1 56 37.3C61.1 34.5 67 33 73.2 33C93 33 109 49 109 68.8C109 81.7 102.1 93 91.8 99.2C104.9 95.7 114.5 83.8 114.5 69.7C114.5 43.5 93.2 22 67 22H85Z" fill="#C89B5B"/>
  <path d="M26 93.5L44 52.5L52.7 72.4L64 45L82.6 93.5H72.4L63.7 70.5L52.8 95.2L43.8 75.8L35.8 93.5H26Z" fill="#F4EFE6"/>
  <path d="M84 40H95" stroke="#3E5D79" stroke-width="3" stroke-linecap="round"/>
  <path d="M82 52H98" stroke="#3E5D79" stroke-width="3" stroke-linecap="round"/>
  <path d="M79 64H100" stroke="#3E5D79" stroke-width="3" stroke-linecap="round"/>
</svg>
